<svg width="262" height="99" viewBox="0 0 262 99" fill="none" xmlns="http://www.w3.org/2000/svg">
<path d="M88.896 55.768C86.6347 55.768 84.5867 55.3627 82.752 54.552C80.96 53.7413 79.4027 52.5893 78.08 51.096C76.8 49.56 75.7974 47.7467 75.072 45.656C74.3894 43.5227 74.048 41.1333 74.048 38.488C74.048 35.8853 74.3894 33.5173 75.072 31.384C75.7974 29.2507 76.8 27.4373 78.08 25.944C79.4027 24.408 80.96 23.2347 82.752 22.424C84.5867 21.6133 86.6347 21.208 88.896 21.208C91.1147 21.208 93.0987 21.6133 94.848 22.424C96.5974 23.2347 98.0907 24.3653 99.328 25.816C100.565 27.224 101.504 28.9093 102.144 30.872C102.827 32.8347 103.168 34.9893 103.168 37.336V39.768H79.424V41.304C79.424 42.712 79.6374 44.0347 80.064 45.272C80.5334 46.4667 81.1734 47.512 81.984 48.408C82.8374 49.304 83.8614 50.008 85.056 50.52C86.2934 51.032 87.68 51.288 89.216 51.288C91.3067 51.288 93.12 50.7973 94.656 49.816C96.2347 48.8347 97.4507 47.4267 98.304 45.592L101.952 48.216C100.885 50.4773 99.2214 52.312 96.96 53.72C94.6987 55.0853 92.0107 55.768 88.896 55.768ZM88.896 25.496C87.488 25.496 86.208 25.752 85.056 26.264C83.904 26.7333 82.9014 27.416 82.048 28.312C81.2374 29.208 80.5974 30.2747 80.128 31.512C79.6587 32.7067 79.424 34.0293 79.424 35.48V35.928H97.664V35.224C97.664 32.28 96.8534 29.9333 95.232 28.184C93.6534 26.392 91.5414 25.496 88.896 25.496ZM123.893 55.768C121.589 55.768 119.52 55.3627 117.685 54.552C115.85 53.7413 114.293 52.5893 113.013 51.096C111.776 49.6027 110.816 47.7893 110.133 45.656C109.493 43.5227 109.173 41.1333 109.173 38.488C109.173 35.8427 109.493 33.4533 110.133 31.32C110.816 29.1867 111.776 27.3733 113.013 25.88C114.293 24.3867 115.85 23.2347 117.685 22.424C119.52 21.6133 121.589 21.208 123.893 21.208C127.178 21.208 129.802 21.9333 131.765 23.384C133.77 24.792 135.264 26.648 136.245 28.952L131.957 31.128C131.36 29.4213 130.378 28.0987 129.013 27.16C127.648 26.2213 125.941 25.752 123.893 25.752C122.357 25.752 121.013 26.008 119.861 26.52C118.709 26.9893 117.749 27.672 116.981 28.568C116.213 29.4213 115.637 30.4667 115.253 31.704C114.869 32.8987 114.677 34.2213 114.677 35.672V41.304C114.677 44.2053 115.445 46.5947 116.981 48.472C118.56 50.3067 120.864 51.224 123.893 51.224C128.032 51.224 131.018 49.304 132.853 45.464L136.565 47.96C135.498 50.3493 133.898 52.248 131.765 53.656C129.674 55.064 127.05 55.768 123.893 55.768ZM151.089 55C149.297 55 147.931 54.5093 146.993 53.528C146.097 52.504 145.649 51.1813 145.649 49.56V26.456H140.209V21.976H143.281C144.39 21.976 145.137 21.7627 145.521 21.336C145.947 20.8667 146.161 20.0773 146.161 18.968V12.824H150.769V21.976H158.001V26.456H150.769V50.52H157.489V55H151.089ZM178.46 55.768C176.241 55.768 174.215 55.3627 172.38 54.552C170.545 53.7413 168.967 52.5893 167.644 51.096C166.364 49.56 165.361 47.7467 164.636 45.656C163.911 43.5227 163.548 41.1333 163.548 38.488C163.548 35.8853 163.911 33.5173 164.636 31.384C165.361 29.2507 166.364 27.4373 167.644 25.944C168.967 24.408 170.545 23.2347 172.38 22.424C174.215 21.6133 176.241 21.208 178.46 21.208C180.679 21.208 182.684 21.6133 184.476 22.424C186.311 23.2347 187.889 24.408 189.212 25.944C190.535 27.4373 191.559 29.2507 192.284 31.384C193.009 33.5173 193.372 35.8853 193.372 38.488C193.372 41.1333 193.009 43.5227 192.284 45.656C191.559 47.7467 190.535 49.56 189.212 51.096C187.889 52.5893 186.311 53.7413 184.476 54.552C182.684 55.3627 180.679 55.768 178.46 55.768ZM178.46 51.224C181.233 51.224 183.495 50.3707 185.244 48.664C186.993 46.9573 187.868 44.3547 187.868 40.856V36.12C187.868 32.6213 186.993 30.0187 185.244 28.312C183.495 26.6053 181.233 25.752 178.46 25.752C175.687 25.752 173.425 26.6053 171.676 28.312C169.927 30.0187 169.052 32.6213 169.052 36.12V40.856C169.052 44.3547 169.927 46.9573 171.676 48.664C173.425 50.3707 175.687 51.224 178.46 51.224ZM201.793 55V21.976H206.913V28.056H207.233C207.83 26.4773 208.897 25.0693 210.433 23.832C211.969 22.5947 214.081 21.976 216.769 21.976H218.753V27.096H215.745C212.971 27.096 210.795 27.6293 209.217 28.696C207.681 29.72 206.913 31.0213 206.913 32.6V55H201.793ZM47.1449 98.768C43.9022 98.768 41.1716 98.256 38.9529 97.232C36.7342 96.1653 34.7502 94.672 33.0009 92.752L38.5689 87.12C39.7636 88.4427 41.0862 89.488 42.5369 90.256C43.9876 91.024 45.6302 91.408 47.4649 91.408C49.3422 91.408 50.6436 91.1307 51.3689 90.576C52.0942 89.9787 52.4569 89.1893 52.4569 88.208C52.4569 86.6293 51.3262 85.6907 49.0649 85.392L45.4169 84.944C37.8649 84.0053 34.0889 80.5493 34.0889 74.576C34.0889 72.9547 34.3876 71.4827 34.9849 70.16C35.6249 68.7947 36.4996 67.6427 37.6089 66.704C38.7609 65.7227 40.1262 64.976 41.7049 64.464C43.3262 63.9093 45.1396 63.632 47.1449 63.632C48.8942 63.632 50.4302 63.76 51.7529 64.016C53.1182 64.2293 54.3129 64.5707 55.3369 65.04C56.4036 65.4667 57.3636 66.0213 58.2169 66.704C59.1129 67.344 59.9876 68.0693 60.8409 68.88L55.4009 74.448C54.3342 73.3813 53.1182 72.5493 51.7529 71.952C50.4302 71.312 49.0649 70.992 47.6569 70.992C46.0356 70.992 44.8836 71.248 44.2009 71.76C43.5182 72.272 43.1769 72.9547 43.1769 73.808C43.1769 74.704 43.4116 75.408 43.8809 75.92C44.3929 76.3893 45.3316 76.7307 46.6969 76.944L50.4729 77.456C57.8542 78.4373 61.5449 81.808 61.5449 87.568C61.5449 89.1893 61.2036 90.6827 60.5209 92.048C59.8382 93.4133 58.8569 94.608 57.5769 95.632C56.3396 96.6133 54.8249 97.3813 53.0329 97.936C51.2836 98.4907 49.3209 98.768 47.1449 98.768ZM79.2789 98C75.9936 98 73.4976 97.168 71.7909 95.504C70.1269 93.84 69.2949 91.408 69.2949 88.208V71.76H64.5589V64.4H66.9269C68.2069 64.4 69.0816 64.1013 69.5509 63.504C70.0202 62.864 70.2549 61.968 70.2549 60.816V55.312H78.7669V64.4H85.4229V71.76H78.7669V90.64H84.9109V98H79.2789ZM116.835 98C115.128 98 113.699 97.4667 112.547 96.4C111.438 95.3333 110.734 93.904 110.435 92.112H110.051C109.539 94.288 108.408 95.952 106.659 97.104C104.91 98.2133 102.755 98.768 100.195 98.768C96.8242 98.768 94.2429 97.872 92.4509 96.08C90.6589 94.288 89.7629 91.92 89.7629 88.976C89.7629 85.4347 91.0429 82.8107 93.6029 81.104C96.2056 79.3547 99.7256 78.48 104.163 78.48H109.475V76.368C109.475 74.7467 109.048 73.4667 108.195 72.528C107.342 71.5467 105.912 71.056 103.907 71.056C102.03 71.056 100.536 71.4613 99.4269 72.272C98.3176 73.0827 97.4002 74 96.6749 75.024L91.0429 70.032C92.4082 68.0267 94.1149 66.4693 96.1629 65.36C98.2536 64.208 101.07 63.632 104.611 63.632C109.39 63.632 112.974 64.6773 115.363 66.768C117.752 68.8587 118.947 71.9093 118.947 75.92V90.64H122.083V98H116.835ZM103.715 92.176C105.294 92.176 106.638 91.8347 107.747 91.152C108.899 90.4693 109.475 89.36 109.475 87.824V83.856H104.867C101.155 83.856 99.2989 85.1147 99.2989 87.632V88.592C99.2989 89.8293 99.6829 90.7467 100.451 91.344C101.219 91.8987 102.307 92.176 103.715 92.176ZM142.008 98.768C139.491 98.768 137.251 98.3627 135.288 97.552C133.326 96.6987 131.683 95.5253 130.36 94.032C129.038 92.496 128.035 90.64 127.352 88.464C126.67 86.288 126.328 83.856 126.328 81.168C126.328 78.48 126.67 76.0693 127.352 73.936C128.035 71.76 129.038 69.904 130.36 68.368C131.683 66.832 133.326 65.6587 135.288 64.848C137.251 64.0373 139.491 63.632 142.008 63.632C145.422 63.632 148.259 64.4 150.52 65.936C152.824 67.472 154.467 69.6267 155.448 72.4L147.768 75.728C147.47 74.448 146.851 73.36 145.912 72.464C144.974 71.568 143.672 71.12 142.008 71.12C140.088 71.12 138.638 71.76 137.656 73.04C136.675 74.2773 136.184 75.9627 136.184 78.096V84.368C136.184 86.5013 136.675 88.1867 137.656 89.424C138.638 90.6613 140.088 91.28 142.008 91.28C143.715 91.28 145.059 90.832 146.04 89.936C147.064 88.9973 147.811 87.7813 148.28 86.288L155.64 89.488C154.531 92.688 152.803 95.0347 150.456 96.528C148.152 98.0213 145.336 98.768 142.008 98.768ZM161.503 50.64H170.975V78.608H171.359L175.519 72.4L182.239 64.4H192.735L181.535 77.264L194.015 98H182.751L175.199 83.792L170.975 88.528V98H161.503V50.64Z" fill="white"/>
<path d="M67.489 34.7014C68.7448 34.3138 69.8256 35.6724 69.1693 36.8136L60.3764 52.1017C58.2392 55.8175 52.9448 55.9682 50.5889 52.3803L31.6431 23.5272C29.9297 20.9178 33.4622 18.0863 35.6242 20.3361L43.4343 28.4632C49.6445 34.9252 58.9469 37.3377 67.489 34.7014V34.7014Z" fill="white"/>
</svg>
